<svg version="1.1" viewBox="0.0 0.0 770.0971128608924 769.1627296587926" fill="none" stroke="none" stroke-linecap="square"
    stroke-miterlimit="10" xmlns="http://www.w3.org/2000/svg">
    <clipPath id="p.0">
        <path d="m0 0l770.0971 0l0 769.1627l-770.0971 0l0 -769.1627z" clip-rule="nonzero" />
    </clipPath>
    <g clip-path="url(#p.0)">
        <path fill="#000000" fill-opacity="0.0" d="m0 0l770.0971 0l0 769.1627l-770.0971 0z" fill-rule="evenodd" />
        <path fill="#8e7cc3"
            d="m70.05643 384.58136l0 0c0 -173.96535 141.02678 -314.99213 314.99213 -314.99213l0 0c83.54111 0 163.66061 33.18657 222.73306 92.259056c59.07251 59.07248 92.259094 139.19196 92.259094 222.73306l0 0c0 173.96533 -141.0268 314.99213 -314.99216 314.99213l0 0c-173.96535 0 -314.99213 -141.0268 -314.99213 -314.99213z"
            fill-rule="evenodd" />
        <path fill="#ffffff"
            d="m294.99545 277.51636c-15.441772 25.901459 62.758514 157.0733 93.84033 157.40622c31.081818 0.33291626 108.29071 -129.17429 92.650635 -155.40866c-15.640045 -26.234375 -171.0492 -27.899002 -186.49097 -1.9975586z"
            fill-rule="evenodd" />
        <path fill="#000000" fill-opacity="0.0"
            d="m384.56375 440.74234l0 0c-20.802216 38.468903 -62.123413 61.68744 -107.542755 60.42871c-45.419296 -1.2587585 -87.57948 -26.790924 -109.72626 -66.4501l107.655365 -53.88394z"
            fill-rule="evenodd" />
        <path fill="#000000" fill-opacity="0.0"
            d="m384.56375 440.74234l0 0c-20.802216 38.468903 -62.123413 61.68744 -107.542755 60.42871c-45.419296 -1.2587585 -87.57948 -26.790924 -109.72626 -66.4501"
            fill-rule="evenodd" />
        <path stroke="#ffffff" stroke-width="24.0" stroke-linejoin="round" stroke-linecap="round"
            d="m384.56375 440.74234l0 0c-20.802216 38.468903 -62.123413 61.68744 -107.542755 60.42871c-45.419296 -1.2587585 -87.57948 -26.790924 -109.72626 -66.4501"
            fill-rule="evenodd" />
        <path fill="#000000" fill-opacity="0.0"
            d="m604.7606 448.23053l0 0c-20.802246 38.468903 -62.123474 61.68744 -107.542755 60.42871c-45.41931 -1.2587585 -87.5795 -26.790924 -109.72629 -66.4501l107.655396 -53.88394z"
            fill-rule="evenodd" />
        <path fill="#000000" fill-opacity="0.0"
            d="m604.7606 448.23053l0 0c-20.802246 38.468903 -62.123474 61.68744 -107.542755 60.42871c-45.41931 -1.2587585 -87.5795 -26.790924 -109.72629 -66.4501"
            fill-rule="evenodd" />
        <path stroke="#ffffff" stroke-width="24.0" stroke-linejoin="round" stroke-linecap="round"
            d="m604.7606 448.23053l0 0c-20.802246 38.468903 -62.123474 61.68744 -107.542755 60.42871c-45.41931 -1.2587585 -87.5795 -26.790924 -109.72629 -66.4501"
            fill-rule="evenodd" />
    </g>
</svg>